<svg xmlns="http://www.w3.org/2000/svg" viewBox="0 0 240 240"><defs><style>.a{fill:#fafaf8;}</style></defs><title>dots</title><circle class="a" cx="6" cy="6" r="6"/><circle class="a" cx="30" cy="6" r="6"/><circle class="a" cx="54" cy="6" r="6"/><circle class="a" cx="78" cy="6" r="6"/><circle class="a" cx="102" cy="6" r="6"/><circle class="a" cx="126" cy="6" r="6"/><circle class="a" cx="150" cy="6" r="6"/><circle class="a" cx="174" cy="6" r="6"/><circle class="a" cx="198" cy="6" r="6"/><circle class="a" cx="222" cy="6" r="6"/><circle class="a" cx="18" cy="18" r="6"/><circle class="a" cx="42" cy="18" r="6"/><circle class="a" cx="66" cy="18" r="6"/><circle class="a" cx="90" cy="18" r="6"/><circle class="a" cx="114" cy="18" r="6"/><circle class="a" cx="138" cy="18" r="6"/><circle class="a" cx="162" cy="18" r="6"/><circle class="a" cx="186" cy="18" r="6"/><circle class="a" cx="210" cy="18" r="6"/><circle class="a" cx="234" cy="18" r="6"/><circle class="a" cx="6" cy="30" r="6"/><circle class="a" cx="30" cy="30" r="6"/><circle class="a" cx="54" cy="30" r="6"/><circle class="a" cx="78" cy="30" r="6"/><circle class="a" cx="102" cy="30" r="6"/><circle class="a" cx="126" cy="30" r="6"/><circle class="a" cx="150" cy="30" r="6"/><circle class="a" cx="174" cy="30" r="6"/><circle class="a" cx="198" cy="30" r="6"/><circle class="a" cx="222" cy="30" r="6"/><circle class="a" cx="18" cy="42" r="6"/><circle class="a" cx="42" cy="42" r="6"/><circle class="a" cx="66" cy="42" r="6"/><circle class="a" cx="90" cy="42" r="6"/><circle class="a" cx="114" cy="42" r="6"/><circle class="a" cx="138" cy="42" r="6"/><circle class="a" cx="162" cy="42" r="6"/><circle class="a" cx="186" cy="42" r="6"/><circle class="a" cx="210" cy="42" r="6"/><circle class="a" cx="234" cy="42" r="6"/><circle class="a" cx="6" cy="54" r="6"/><circle class="a" cx="30" cy="54" r="6"/><circle class="a" cx="54" cy="54" r="6"/><circle class="a" cx="78" cy="54" r="6"/><circle class="a" cx="102" cy="54" r="6"/><circle class="a" cx="126" cy="54" r="6"/><circle class="a" cx="150" cy="54" r="6"/><circle class="a" cx="174" cy="54" r="6"/><circle class="a" cx="198" cy="54" r="6"/><circle class="a" cx="222" cy="54" r="6"/><circle class="a" cx="18" cy="66" r="6"/><circle class="a" cx="42" cy="66" r="6"/><circle class="a" cx="66" cy="66" r="6"/><circle class="a" cx="90" cy="66" r="6"/><circle class="a" cx="114" cy="66" r="6"/><circle class="a" cx="138" cy="66" r="6"/><circle class="a" cx="162" cy="66" r="6"/><circle class="a" cx="186" cy="66" r="6"/><circle class="a" cx="210" cy="66" r="6"/><circle class="a" cx="234" cy="66" r="6"/><circle class="a" cx="6" cy="78" r="6"/><circle class="a" cx="30" cy="78" r="6"/><circle class="a" cx="54" cy="78" r="6"/><circle class="a" cx="78" cy="78" r="6"/><circle class="a" cx="102" cy="78" r="6"/><circle class="a" cx="126" cy="78" r="6"/><circle class="a" cx="150" cy="78" r="6"/><circle class="a" cx="174" cy="78" r="6"/><circle class="a" cx="198" cy="78" r="6"/><circle class="a" cx="222" cy="78" r="6"/><circle class="a" cx="18" cy="90" r="6"/><circle class="a" cx="42" cy="90" r="6"/><circle class="a" cx="66" cy="90" r="6"/><circle class="a" cx="90" cy="90" r="6"/><circle class="a" cx="114" cy="90" r="6"/><circle class="a" cx="138" cy="90" r="6"/><circle class="a" cx="162" cy="90" r="6"/><circle class="a" cx="186" cy="90" r="6"/><circle class="a" cx="210" cy="90" r="6"/><circle class="a" cx="234" cy="90" r="6"/><circle class="a" cx="6" cy="102" r="6"/><circle class="a" cx="30" cy="102" r="6"/><circle class="a" cx="54" cy="102" r="6"/><circle class="a" cx="78" cy="102" r="6"/><circle class="a" cx="102" cy="102" r="6"/><circle class="a" cx="126" cy="102" r="6"/><circle class="a" cx="150" cy="102" r="6"/><circle class="a" cx="174" cy="102" r="6"/><circle class="a" cx="198" cy="102" r="6"/><circle class="a" cx="222" cy="102" r="6"/><circle class="a" cx="18" cy="114" r="6"/><circle class="a" cx="42" cy="114" r="6"/><circle class="a" cx="66" cy="114" r="6"/><circle class="a" cx="90" cy="114" r="6"/><circle class="a" cx="114" cy="114" r="6"/><circle class="a" cx="138" cy="114" r="6"/><circle class="a" cx="162" cy="114" r="6"/><circle class="a" cx="186" cy="114" r="6"/><circle class="a" cx="210" cy="114" r="6"/><circle class="a" cx="234" cy="114" r="6"/><circle class="a" cx="6" cy="126" r="6"/><circle class="a" cx="30" cy="126" r="6"/><circle class="a" cx="54" cy="126" r="6"/><circle class="a" cx="78" cy="126" r="6"/><circle class="a" cx="102" cy="126" r="6"/><circle class="a" cx="126" cy="126" r="6"/><circle class="a" cx="150" cy="126" r="6"/><circle class="a" cx="174" cy="126" r="6"/><circle class="a" cx="198" cy="126" r="6"/><circle class="a" cx="222" cy="126" r="6"/><circle class="a" cx="18" cy="138" r="6"/><circle class="a" cx="42" cy="138" r="6"/><circle class="a" cx="66" cy="138" r="6"/><circle class="a" cx="90" cy="138" r="6"/><circle class="a" cx="114" cy="138" r="6"/><circle class="a" cx="138" cy="138" r="6"/><circle class="a" cx="162" cy="138" r="6"/><circle class="a" cx="186" cy="138" r="6"/><circle class="a" cx="210" cy="138" r="6"/><circle class="a" cx="234" cy="138" r="6"/><circle class="a" cx="6" cy="150" r="6"/><circle class="a" cx="30" cy="150" r="6"/><circle class="a" cx="54" cy="150" r="6"/><circle class="a" cx="78" cy="150" r="6"/><circle class="a" cx="102" cy="150" r="6"/><circle class="a" cx="126" cy="150" r="6"/><circle class="a" cx="150" cy="150" r="6"/><circle class="a" cx="174" cy="150" r="6"/><circle class="a" cx="198" cy="150" r="6"/><circle class="a" cx="222" cy="150" r="6"/><circle class="a" cx="18" cy="162" r="6"/><circle class="a" cx="42" cy="162" r="6"/><circle class="a" cx="66" cy="162" r="6"/><circle class="a" cx="90" cy="162" r="6"/><circle class="a" cx="114" cy="162" r="6"/><circle class="a" cx="138" cy="162" r="6"/><circle class="a" cx="162" cy="162" r="6"/><circle class="a" cx="186" cy="162" r="6"/><circle class="a" cx="210" cy="162" r="6"/><circle class="a" cx="234" cy="162" r="6"/><circle class="a" cx="6" cy="174" r="6"/><circle class="a" cx="30" cy="174" r="6"/><circle class="a" cx="54" cy="174" r="6"/><circle class="a" cx="78" cy="174" r="6"/><circle class="a" cx="102" cy="174" r="6"/><circle class="a" cx="126" cy="174" r="6"/><circle class="a" cx="150" cy="174" r="6"/><circle class="a" cx="174" cy="174" r="6"/><circle class="a" cx="198" cy="174" r="6"/><circle class="a" cx="222" cy="174" r="6"/><circle class="a" cx="18" cy="186" r="6"/><circle class="a" cx="42" cy="186" r="6"/><circle class="a" cx="66" cy="186" r="6"/><circle class="a" cx="90" cy="186" r="6"/><circle class="a" cx="114" cy="186" r="6"/><circle class="a" cx="138" cy="186" r="6"/><circle class="a" cx="162" cy="186" r="6"/><circle class="a" cx="186" cy="186" r="6"/><circle class="a" cx="210" cy="186" r="6"/><circle class="a" cx="234" cy="186" r="6"/><circle class="a" cx="6" cy="198" r="6"/><circle class="a" cx="30" cy="198" r="6"/><circle class="a" cx="54" cy="198" r="6"/><circle class="a" cx="78" cy="198" r="6"/><circle class="a" cx="102" cy="198" r="6"/><circle class="a" cx="126" cy="198" r="6"/><circle class="a" cx="150" cy="198" r="6"/><circle class="a" cx="174" cy="198" r="6"/><circle class="a" cx="198" cy="198" r="6"/><circle class="a" cx="222" cy="198" r="6"/><circle class="a" cx="18" cy="210" r="6"/><circle class="a" cx="42" cy="210" r="6"/><circle class="a" cx="66" cy="210" r="6"/><circle class="a" cx="90" cy="210" r="6"/><circle class="a" cx="114" cy="210" r="6"/><circle class="a" cx="138" cy="210" r="6"/><circle class="a" cx="162" cy="210" r="6"/><circle class="a" cx="186" cy="210" r="6"/><circle class="a" cx="210" cy="210" r="6"/><circle class="a" cx="234" cy="210" r="6"/><circle class="a" cx="6" cy="222" r="6"/><circle class="a" cx="30" cy="222" r="6"/><circle class="a" cx="54" cy="222" r="6"/><circle class="a" cx="78" cy="222" r="6"/><circle class="a" cx="102" cy="222" r="6"/><circle class="a" cx="126" cy="222" r="6"/><circle class="a" cx="150" cy="222" r="6"/><circle class="a" cx="174" cy="222" r="6"/><circle class="a" cx="198" cy="222" r="6"/><circle class="a" cx="222" cy="222" r="6"/><circle class="a" cx="18" cy="234" r="6"/><circle class="a" cx="42" cy="234" r="6"/><circle class="a" cx="66" cy="234" r="6"/><circle class="a" cx="90" cy="234" r="6"/><circle class="a" cx="114" cy="234" r="6"/><circle class="a" cx="138" cy="234" r="6"/><circle class="a" cx="162" cy="234" r="6"/><circle class="a" cx="186" cy="234" r="6"/><circle class="a" cx="210" cy="234" r="6"/><circle class="a" cx="234" cy="234" r="6"/></svg>
