<?xml version="1.0" encoding="UTF-8" standalone="no"?>
<svg width="404px" height="404px" viewBox="0 0 404 404" version="1.1" xmlns="http://www.w3.org/2000/svg" xmlns:xlink="http://www.w3.org/1999/xlink">
    <!-- Generator: Sketch 42 (36781) - http://www.bohemiancoding.com/sketch -->
    <title>Logo</title>
    <desc>Created with Sketch.</desc>
    <defs>
        <circle id="path-1" cx="93" cy="93" r="77"></circle>
        <mask id="mask-2" maskContentUnits="userSpaceOnUse" maskUnits="objectBoundingBox" x="0" y="0" width="154" height="154" fill="white">
            <use xlink:href="#path-1"></use>
        </mask>
        <circle id="path-3" cx="311" cy="93" r="77"></circle>
        <mask id="mask-4" maskContentUnits="userSpaceOnUse" maskUnits="objectBoundingBox" x="0" y="0" width="154" height="154" fill="white">
            <use xlink:href="#path-3"></use>
        </mask>
        <circle id="path-5" cx="93" cy="311" r="77"></circle>
        <mask id="mask-6" maskContentUnits="userSpaceOnUse" maskUnits="objectBoundingBox" x="0" y="0" width="154" height="154" fill="white">
            <use xlink:href="#path-5"></use>
        </mask>
        <circle id="path-7" cx="311" cy="311" r="77"></circle>
        <mask id="mask-8" maskContentUnits="userSpaceOnUse" maskUnits="objectBoundingBox" x="0" y="0" width="154" height="154" fill="white">
            <use xlink:href="#path-7"></use>
        </mask>
    </defs>
    <g id="Page-2" stroke="none" stroke-width="1" fill="none" fill-rule="evenodd">
        <g id="Logo">
            <path d="M186,93 L186,186 L93,186 C41.6375183,186 0,144.362482 0,93 C0,41.6375183 41.6375183,0 93,0 C144.362482,0 186,41.6375183 186,93 Z M93,110 C101.836556,110 109,102.836556 109,94 C109,85.163444 101.836556,78 93,78 C84.163444,78 77,85.163444 77,94 C77,102.836556 84.163444,110 93,110 Z" id="Combined-Shape" fill="#EEEEEE"></path>
            <path d="M311,186 L218,186 L218,93.0000184 C218,41.6375183 259.637518,-1.2308103e-14 311,-2.87296813e-15 C362.362482,6.56216669e-15 404,41.6375183 404,93 C404,144.362482 362.362482,186 311,186 Z M311,110 C319.836556,110 327,102.836556 327,94 C327,85.163444 319.836556,78 311,78 C302.163444,78 295,85.163444 295,94 C295,102.836556 302.163444,110 311,110 Z" id="Combined-Shape" fill="#EEEEEE"></path>
            <path d="M93,218 L186,218 L186,311 C186,362.362482 144.362482,404 93,404 C41.6375183,404 0,362.362482 0,311 C0,259.637518 41.6375183,218 93,218 Z M93,327 C101.836556,327 109,319.836556 109,311 C109,302.163444 101.836556,295 93,295 C84.163444,295 77,302.163444 77,311 C77,319.836556 84.163444,327 93,327 Z" id="Combined-Shape" fill="#EEEEEE"></path>
            <path d="M311,218 C362.362482,218 404,259.637518 404,311 C404,362.362482 362.362482,404 311,404 C259.637518,404 218,362.362482 218,311 L218,218 L310.999973,218 Z M311,327 C319.836556,327 327,319.836556 327,311 C327,302.163444 319.836556,295 311,295 C302.163444,295 295,302.163444 295,311 C295,319.836556 302.163444,327 311,327 Z" id="Combined-Shape" fill="#EEEEEE"></path>
            <rect id="Rectangle-2" fill="#FFFFFF" x="379" y="94" width="4" height="221"></rect>
            <rect id="Rectangle-2" fill="#FFFFFF" transform="translate(199.000000, 23.500000) rotate(-90.000000) translate(-199.000000, -23.500000) " x="197" y="-80" width="4" height="207"></rect>
            <rect id="Rectangle-2" fill="#FFFFFF" transform="translate(154.519769, 252.769553) rotate(-45.000000) translate(-154.519769, -252.769553) " x="152.519769" y="98.117749" width="4" height="309.303607"></rect>
            <use id="Oval" stroke="#333333" mask="url(#mask-2)" stroke-width="32" xlink:href="#path-1"></use>
            <use id="Oval" stroke="#333333" mask="url(#mask-4)" stroke-width="32" transform="translate(311.000000, 93.000000) rotate(-270.000000) translate(-311.000000, -93.000000) " xlink:href="#path-3"></use>
            <use id="Oval" stroke="#333333" mask="url(#mask-6)" stroke-width="32" xlink:href="#path-5"></use>
            <use id="Oval" stroke="#333333" mask="url(#mask-8)" stroke-width="32" transform="translate(311.000000, 311.000000) rotate(-270.000000) translate(-311.000000, -311.000000) " xlink:href="#path-7"></use>
        </g>
    </g>
</svg>